<svg width="499" height="483" viewBox="0 0 499 483" fill="none" xmlns="http://www.w3.org/2000/svg">
<rect width="499" height="483" fill="white"/>
<path d="M437 368V64H62V419H365H389.5" stroke="black" stroke-width="5"/>
<path d="M398.539 368.435C403.349 361.431 405.934 353.15 405.934 344.467C405.934 333.117 401.515 322.457 393.501 314.432C385.478 306.409 374.807 302 363.468 302C352.128 302 341.457 306.409 333.432 314.432C325.419 322.456 321 333.116 321 344.466C321 355.817 325.419 366.477 333.433 374.491C341.456 382.515 352.127 386.933 363.468 386.933C372.151 386.933 380.432 384.348 387.436 379.527L410.602 402.693C412.137 404.228 414.146 405 416.154 405C418.163 405 420.171 404.228 421.706 402.693C424.765 399.634 424.765 394.669 421.706 391.6L398.54 368.434L398.539 368.435ZM363.467 371.236C348.707 371.236 336.687 359.226 336.687 344.467C336.687 329.708 348.707 317.687 363.467 317.687C378.227 317.687 390.247 329.697 390.247 344.467C390.247 359.238 378.227 371.236 363.467 371.236Z" fill="#191919"/>
<path d="M112.844 153.74H121.82C123.14 153.74 124.24 153.373 125.12 152.64C126 151.877 126.44 150.792 126.44 149.384C126.44 147.8 126.044 146.685 125.252 146.04C124.46 145.395 123.316 145.072 121.82 145.072H112.844V153.74ZM107.344 140.584H122.612C125.428 140.584 127.687 141.229 129.388 142.52C131.089 143.811 131.94 145.761 131.94 148.372C131.94 149.956 131.544 151.32 130.752 152.464C129.989 153.579 128.889 154.444 127.452 155.06V155.148C129.388 155.559 130.855 156.483 131.852 157.92C132.849 159.328 133.348 161.103 133.348 163.244C133.348 164.476 133.128 165.635 132.688 166.72C132.248 167.776 131.559 168.7 130.62 169.492C129.681 170.255 128.479 170.871 127.012 171.34C125.545 171.78 123.8 172 121.776 172H107.344V140.584ZM112.844 167.512H122.568C124.24 167.512 125.531 167.087 126.44 166.236C127.379 165.356 127.848 164.124 127.848 162.54C127.848 160.985 127.379 159.797 126.44 158.976C125.531 158.125 124.24 157.7 122.568 157.7H112.844V167.512ZM145.848 153.432C148.166 153.491 149.867 153.197 150.952 152.552C152.067 151.877 152.624 150.572 152.624 148.636C152.624 147.257 152.199 146.201 151.348 145.468C150.527 144.705 149.383 144.324 147.916 144.324C147.036 144.324 146.259 144.485 145.584 144.808C144.939 145.131 144.411 145.585 144 146.172C143.59 146.729 143.282 147.389 143.076 148.152C142.9 148.915 142.827 149.736 142.856 150.616H137.444C137.503 149.061 137.767 147.624 138.236 146.304C138.735 144.984 139.424 143.855 140.304 142.916C141.214 141.948 142.314 141.2 143.604 140.672C144.895 140.115 146.362 139.836 148.004 139.836C149.383 139.836 150.688 140.012 151.92 140.364C153.152 140.716 154.223 141.244 155.132 141.948C156.071 142.652 156.804 143.532 157.332 144.588C157.86 145.644 158.124 146.876 158.124 148.284C158.124 149.897 157.743 151.291 156.98 152.464C156.218 153.637 155.059 154.503 153.504 155.06V155.148C155.323 155.5 156.76 156.395 157.816 157.832C158.872 159.269 159.4 161.015 159.4 163.068C159.4 164.564 159.107 165.913 158.52 167.116C157.963 168.319 157.171 169.345 156.144 170.196C155.147 171.017 153.959 171.648 152.58 172.088C151.202 172.528 149.691 172.748 148.048 172.748C146.112 172.748 144.44 172.484 143.032 171.956C141.654 171.428 140.495 170.695 139.556 169.756C138.647 168.788 137.958 167.629 137.488 166.28C137.048 164.901 136.814 163.376 136.784 161.704H142.196C142.138 163.728 142.592 165.327 143.56 166.5C144.528 167.673 146.024 168.26 148.048 168.26C149.955 168.26 151.407 167.82 152.404 166.94C153.402 166.031 153.9 164.652 153.9 162.804C153.9 161.572 153.724 160.604 153.372 159.9C153.05 159.167 152.551 158.624 151.876 158.272C151.202 157.891 150.366 157.671 149.368 157.612C148.371 157.524 147.198 157.495 145.848 157.524V153.432ZM164.321 140.584H186.013V145.336H169.821V172H164.321V140.584ZM188.863 167.424C189.625 167.424 190.271 167.263 190.799 166.94C191.356 166.617 191.825 166.163 192.207 165.576C192.588 164.96 192.881 164.256 193.087 163.464C193.321 162.643 193.512 161.748 193.659 160.78C193.776 159.812 193.879 158.932 193.967 158.14C194.084 157.319 194.172 156.512 194.231 155.72C194.289 154.899 194.333 154.048 194.363 153.168C194.421 152.259 194.451 151.217 194.451 150.044C194.48 148.871 194.495 147.521 194.495 145.996C194.524 144.471 194.539 142.667 194.539 140.584H216.187V172H210.687V145.336H199.687C199.628 147.272 199.584 148.988 199.555 150.484C199.555 151.98 199.525 153.373 199.467 154.664C199.437 155.925 199.364 157.157 199.247 158.36C199.129 159.533 198.953 160.809 198.719 162.188C198.572 163.097 198.337 164.139 198.015 165.312C197.692 166.456 197.179 167.541 196.475 168.568C195.8 169.565 194.905 170.416 193.791 171.12C192.676 171.824 191.253 172.176 189.523 172.176C188.965 172.176 188.496 172.161 188.115 172.132C187.763 172.103 187.411 172.059 187.059 172V167.248C187.411 167.307 187.719 167.351 187.983 167.38C188.247 167.409 188.54 167.424 188.863 167.424ZM245.461 172H239.961V159.944H233.977L225.705 172H219.105L227.949 159.592C226.482 159.24 225.294 158.727 224.385 158.052C223.476 157.348 222.757 156.571 222.229 155.72C221.73 154.84 221.378 153.931 221.173 152.992C220.997 152.053 220.909 151.159 220.909 150.308C220.909 149.34 221.041 148.284 221.305 147.14C221.598 145.996 222.126 144.94 222.889 143.972C223.652 143.004 224.722 142.197 226.101 141.552C227.509 140.907 229.342 140.584 231.601 140.584H245.461V172ZM239.961 145.072H231.821C231.088 145.072 230.398 145.145 229.753 145.292C229.108 145.439 228.536 145.717 228.037 146.128C227.538 146.509 227.142 147.037 226.849 147.712C226.556 148.387 226.409 149.237 226.409 150.264C226.409 151.261 226.57 152.097 226.893 152.772C227.245 153.417 227.685 153.945 228.213 154.356C228.77 154.737 229.372 155.016 230.017 155.192C230.662 155.368 231.293 155.456 231.909 155.456H239.961V145.072ZM278.417 172H254.745V179.788H249.245V167.248H252.765C252.999 167.16 253.219 167.057 253.425 166.94C253.982 166.617 254.451 166.163 254.833 165.576C255.214 164.96 255.507 164.256 255.713 163.464C255.947 162.643 256.138 161.748 256.285 160.78C256.402 159.812 256.505 158.932 256.593 158.14C256.71 157.319 256.798 156.512 256.857 155.72C256.915 154.899 256.959 154.048 256.989 153.168C257.047 152.259 257.077 151.217 257.077 150.044C257.106 148.871 257.121 147.521 257.121 145.996C257.15 144.471 257.165 142.667 257.165 140.584H278.813V167.248H283.917V179.788H278.417V172ZM259.893 167.248H273.313V145.336H262.313C262.254 147.272 262.21 148.988 262.181 150.484C262.181 151.98 262.151 153.373 262.093 154.664C262.063 155.925 261.99 157.157 261.873 158.36C261.755 159.533 261.579 160.809 261.345 162.188C261.198 163.097 260.963 164.139 260.641 165.312C260.435 165.987 260.186 166.632 259.893 167.248ZM107.256 203.584H115L123.668 228.18H123.756L132.204 203.584H139.86V235H134.624V210.756H134.536L125.824 235H121.292L112.58 210.756H112.492V235H107.256V203.584ZM159.822 207.324C158.15 207.324 156.698 207.661 155.466 208.336C154.263 209.011 153.28 209.92 152.518 211.064C151.755 212.179 151.183 213.455 150.802 214.892C150.45 216.329 150.274 217.796 150.274 219.292C150.274 220.788 150.45 222.255 150.802 223.692C151.183 225.129 151.755 226.42 152.518 227.564C153.28 228.679 154.263 229.573 155.466 230.248C156.698 230.923 158.15 231.26 159.822 231.26C161.494 231.26 162.931 230.923 164.134 230.248C165.366 229.573 166.363 228.679 167.126 227.564C167.888 226.42 168.446 225.129 168.798 223.692C169.179 222.255 169.37 220.788 169.37 219.292C169.37 217.796 169.179 216.329 168.798 214.892C168.446 213.455 167.888 212.179 167.126 211.064C166.363 209.92 165.366 209.011 164.134 208.336C162.931 207.661 161.494 207.324 159.822 207.324ZM159.822 202.836C162.168 202.836 164.266 203.276 166.114 204.156C167.991 205.036 169.575 206.224 170.866 207.72C172.156 209.216 173.139 210.961 173.814 212.956C174.518 214.951 174.87 217.063 174.87 219.292C174.87 221.551 174.518 223.677 173.814 225.672C173.139 227.667 172.156 229.412 170.866 230.908C169.575 232.404 167.991 233.592 166.114 234.472C164.266 235.323 162.168 235.748 159.822 235.748C157.475 235.748 155.363 235.323 153.486 234.472C151.638 233.592 150.068 232.404 148.778 230.908C147.487 229.412 146.49 227.667 145.786 225.672C145.111 223.677 144.774 221.551 144.774 219.292C144.774 217.063 145.111 214.951 145.786 212.956C146.49 210.961 147.487 209.216 148.778 207.72C150.068 206.224 151.638 205.036 153.486 204.156C155.363 203.276 157.475 202.836 159.822 202.836ZM179.875 203.584H193.735C195.965 203.584 197.783 203.907 199.191 204.552C200.599 205.197 201.685 206.004 202.447 206.972C203.21 207.94 203.723 208.996 203.987 210.14C204.281 211.284 204.427 212.34 204.427 213.308C204.427 214.276 204.281 215.332 203.987 216.476C203.723 217.591 203.21 218.632 202.447 219.6C201.685 220.568 200.599 221.375 199.191 222.02C197.783 222.636 195.965 222.944 193.735 222.944H185.375V235H179.875V203.584ZM185.375 218.456H193.427C194.043 218.456 194.674 218.368 195.319 218.192C195.965 218.016 196.551 217.737 197.079 217.356C197.637 216.945 198.077 216.417 198.399 215.772C198.751 215.097 198.927 214.261 198.927 213.264C198.927 212.237 198.781 211.387 198.487 210.712C198.194 210.037 197.798 209.509 197.299 209.128C196.801 208.717 196.229 208.439 195.583 208.292C194.938 208.145 194.249 208.072 193.515 208.072H185.375V218.456ZM219.519 231.392C217.495 231.216 215.72 230.776 214.195 230.072C212.67 229.368 211.379 228.473 210.323 227.388C209.296 226.273 208.519 224.997 207.991 223.56C207.492 222.093 207.243 220.509 207.243 218.808C207.243 217.107 207.478 215.523 207.947 214.056C208.446 212.589 209.194 211.313 210.191 210.228C211.218 209.113 212.494 208.219 214.019 207.544C215.574 206.84 217.407 206.4 219.519 206.224V202.264H225.019V206.224C227.131 206.4 228.95 206.84 230.475 207.544C232.03 208.219 233.306 209.113 234.303 210.228C235.33 211.313 236.092 212.589 236.591 214.056C237.09 215.523 237.339 217.107 237.339 218.808C237.339 220.509 237.075 222.093 236.547 223.56C236.019 224.997 235.242 226.273 234.215 227.388C233.188 228.473 231.898 229.368 230.343 230.072C228.818 230.776 227.043 231.216 225.019 231.392V235H219.519V231.392ZM232.015 218.808C232.015 217.752 231.883 216.769 231.619 215.86C231.384 214.921 230.988 214.1 230.431 213.396C229.903 212.663 229.184 212.061 228.275 211.592C227.395 211.093 226.31 210.756 225.019 210.58V226.992C226.31 226.816 227.395 226.493 228.275 226.024C229.184 225.525 229.903 224.924 230.431 224.22C230.988 223.487 231.384 222.665 231.619 221.756C231.883 220.847 232.015 219.864 232.015 218.808ZM212.567 218.808C212.567 219.864 212.684 220.847 212.919 221.756C213.154 222.665 213.55 223.487 214.107 224.22C214.664 224.924 215.383 225.525 216.263 226.024C217.143 226.493 218.228 226.816 219.519 226.992V210.624C218.228 210.8 217.143 211.137 216.263 211.636C215.383 212.105 214.664 212.707 214.107 213.44C213.55 214.144 213.154 214.951 212.919 215.86C212.684 216.769 212.567 217.752 212.567 218.808ZM255.427 207.324C253.755 207.324 252.303 207.661 251.071 208.336C249.868 209.011 248.886 209.92 248.123 211.064C247.36 212.179 246.788 213.455 246.407 214.892C246.055 216.329 245.879 217.796 245.879 219.292C245.879 220.788 246.055 222.255 246.407 223.692C246.788 225.129 247.36 226.42 248.123 227.564C248.886 228.679 249.868 229.573 251.071 230.248C252.303 230.923 253.755 231.26 255.427 231.26C257.099 231.26 258.536 230.923 259.739 230.248C260.971 229.573 261.968 228.679 262.731 227.564C263.494 226.42 264.051 225.129 264.403 223.692C264.784 222.255 264.975 220.788 264.975 219.292C264.975 217.796 264.784 216.329 264.403 214.892C264.051 213.455 263.494 212.179 262.731 211.064C261.968 209.92 260.971 209.011 259.739 208.336C258.536 207.661 257.099 207.324 255.427 207.324ZM255.427 202.836C257.774 202.836 259.871 203.276 261.719 204.156C263.596 205.036 265.18 206.224 266.471 207.72C267.762 209.216 268.744 210.961 269.419 212.956C270.123 214.951 270.475 217.063 270.475 219.292C270.475 221.551 270.123 223.677 269.419 225.672C268.744 227.667 267.762 229.412 266.471 230.908C265.18 232.404 263.596 233.592 261.719 234.472C259.871 235.323 257.774 235.748 255.427 235.748C253.08 235.748 250.968 235.323 249.091 234.472C247.243 233.592 245.674 232.404 244.383 230.908C243.092 229.412 242.095 227.667 241.391 225.672C240.716 223.677 240.379 221.551 240.379 219.292C240.379 217.063 240.716 214.951 241.391 212.956C242.095 210.961 243.092 209.216 244.383 207.72C245.674 206.224 247.243 205.036 249.091 204.156C250.968 203.276 253.08 202.836 255.427 202.836ZM273.941 230.424C274.703 230.424 275.349 230.263 275.877 229.94C276.434 229.617 276.903 229.163 277.285 228.576C277.666 227.96 277.959 227.256 278.165 226.464C278.399 225.643 278.59 224.748 278.737 223.78C278.854 222.812 278.957 221.932 279.045 221.14C279.162 220.319 279.25 219.512 279.309 218.72C279.367 217.899 279.411 217.048 279.441 216.168C279.499 215.259 279.529 214.217 279.529 213.044C279.558 211.871 279.573 210.521 279.573 208.996C279.602 207.471 279.617 205.667 279.617 203.584H301.265V235H295.765V208.336H284.765C284.706 210.272 284.662 211.988 284.633 213.484C284.633 214.98 284.603 216.373 284.545 217.664C284.515 218.925 284.442 220.157 284.325 221.36C284.207 222.533 284.031 223.809 283.797 225.188C283.65 226.097 283.415 227.139 283.093 228.312C282.77 229.456 282.257 230.541 281.553 231.568C280.878 232.565 279.983 233.416 278.869 234.12C277.754 234.824 276.331 235.176 274.601 235.176C274.043 235.176 273.574 235.161 273.193 235.132C272.841 235.103 272.489 235.059 272.137 235V230.248C272.489 230.307 272.797 230.351 273.061 230.38C273.325 230.409 273.618 230.424 273.941 230.424ZM321.255 207.324C319.583 207.324 318.131 207.661 316.899 208.336C315.696 209.011 314.714 209.92 313.951 211.064C313.188 212.179 312.616 213.455 312.235 214.892C311.883 216.329 311.707 217.796 311.707 219.292C311.707 220.788 311.883 222.255 312.235 223.692C312.616 225.129 313.188 226.42 313.951 227.564C314.714 228.679 315.696 229.573 316.899 230.248C318.131 230.923 319.583 231.26 321.255 231.26C322.927 231.26 324.364 230.923 325.567 230.248C326.799 229.573 327.796 228.679 328.559 227.564C329.322 226.42 329.879 225.129 330.231 223.692C330.612 222.255 330.803 220.788 330.803 219.292C330.803 217.796 330.612 216.329 330.231 214.892C329.879 213.455 329.322 212.179 328.559 211.064C327.796 209.92 326.799 209.011 325.567 208.336C324.364 207.661 322.927 207.324 321.255 207.324ZM321.255 202.836C323.602 202.836 325.699 203.276 327.547 204.156C329.424 205.036 331.008 206.224 332.299 207.72C333.59 209.216 334.572 210.961 335.247 212.956C335.951 214.951 336.303 217.063 336.303 219.292C336.303 221.551 335.951 223.677 335.247 225.672C334.572 227.667 333.59 229.412 332.299 230.908C331.008 232.404 329.424 233.592 327.547 234.472C325.699 235.323 323.602 235.748 321.255 235.748C318.908 235.748 316.796 235.323 314.919 234.472C313.071 233.592 311.502 232.404 310.211 230.908C308.92 229.412 307.923 227.667 307.219 225.672C306.544 223.677 306.207 221.551 306.207 219.292C306.207 217.063 306.544 214.951 307.219 212.956C307.923 210.961 308.92 209.216 310.211 207.72C311.502 206.224 313.071 205.036 314.919 204.156C316.796 203.276 318.908 202.836 321.255 202.836ZM341.309 203.584H363.001V208.336H346.809V235H341.309V203.584ZM375.795 203.584H381.647L393.747 235H387.851L384.903 226.684H372.363L369.415 235H363.739L375.795 203.584ZM373.859 222.504H383.451L378.743 208.996H378.611L373.859 222.504Z" fill="#191919"/>
</svg>
